<mxfile modified="2023-07-23T14:09:29.621Z" host="app.diagrams.net" agent="Mozilla/5.0 (Windows NT 10.0; Win64; x64) AppleWebKit/537.36 (KHTML, like Gecko) Chrome/114.0.0.0 Safari/537.36" etag="qjWhPuaoN-ViFN3N3cKo" version="21.6.1" type="github">
  <diagram id="f106602c-feb2-e66a-4537-3a34d633f6aa" name="Page-1">
    <mxGraphModel dx="1793" dy="949" grid="1" gridSize="10" guides="1" tooltips="1" connect="1" arrows="1" fold="1" page="1" pageScale="1" pageWidth="1169" pageHeight="827" background="none" math="0" shadow="0">
      <root>
        <mxCell id="0" />
        <mxCell id="1" parent="0" />
        <mxCell id="dWmpKs4iqiSJMQZNEG1G-541" style="edgeStyle=orthogonalEdgeStyle;rounded=0;orthogonalLoop=1;jettySize=auto;html=1;exitX=0.997;exitY=0.694;exitDx=0;exitDy=0;entryX=0;entryY=0.5;entryDx=0;entryDy=0;strokeColor=#FF0000;startArrow=diamond;startFill=1;exitPerimeter=0;" parent="1" source="dWmpKs4iqiSJMQZNEG1G-522" target="dWmpKs4iqiSJMQZNEG1G-532" edge="1">
          <mxGeometry relative="1" as="geometry" />
        </mxCell>
        <mxCell id="dWmpKs4iqiSJMQZNEG1G-572" style="edgeStyle=orthogonalEdgeStyle;rounded=0;orthogonalLoop=1;jettySize=auto;html=1;entryX=0.012;entryY=0.837;entryDx=0;entryDy=0;strokeColor=#00CC00;startArrow=diamond;startFill=1;entryPerimeter=0;" parent="1" target="dWmpKs4iqiSJMQZNEG1G-565" edge="1">
          <mxGeometry relative="1" as="geometry">
            <mxPoint x="520" y="570" as="sourcePoint" />
          </mxGeometry>
        </mxCell>
        <mxCell id="dWmpKs4iqiSJMQZNEG1G-522" value="" style="strokeColor=#dddddd;shadow=1;strokeWidth=1;rounded=1;absoluteArcSize=1;arcSize=0;" parent="1" vertex="1">
          <mxGeometry x="360" y="10" width="160" height="670" as="geometry" />
        </mxCell>
        <mxCell id="dWmpKs4iqiSJMQZNEG1G-523" value="&lt;b style=&quot;border-color: var(--border-color);&quot;&gt;&lt;font style=&quot;border-color: var(--border-color); font-size: 21px;&quot;&gt;Web ApI&lt;/font&gt;&lt;/b&gt;&lt;br style=&quot;border-color: var(--border-color);&quot;&gt;&lt;div style=&quot;border-color: var(--border-color);&quot;&gt;&lt;font style=&quot;border-color: var(--border-color); font-size: 16px;&quot;&gt;&amp;nbsp;(Express)&lt;/font&gt;&lt;/div&gt;" style="sketch=0;dashed=0;connectable=0;html=1;fillColor=#757575;strokeColor=none;shape=mxgraph.gcp2.network_load_balancer;part=1;labelPosition=right;verticalLabelPosition=middle;align=left;verticalAlign=middle;spacingLeft=5;fontSize=12;" parent="dWmpKs4iqiSJMQZNEG1G-522" vertex="1">
          <mxGeometry y="0.5" width="32" height="32" relative="1" as="geometry">
            <mxPoint x="5" y="-16" as="offset" />
          </mxGeometry>
        </mxCell>
        <mxCell id="dWmpKs4iqiSJMQZNEG1G-536" value="" style="group" parent="1" vertex="1" connectable="0">
          <mxGeometry x="40" y="530" width="180" height="80" as="geometry" />
        </mxCell>
        <mxCell id="dWmpKs4iqiSJMQZNEG1G-520" value="" style="whiteSpace=wrap;html=1;fillColor=#4D4D4D;" parent="dWmpKs4iqiSJMQZNEG1G-536" vertex="1">
          <mxGeometry width="180" height="80" as="geometry" />
        </mxCell>
        <mxCell id="dWmpKs4iqiSJMQZNEG1G-518" value="" style="strokeColor=#dddddd;shadow=1;strokeWidth=1;rounded=1;absoluteArcSize=1;arcSize=2;" parent="dWmpKs4iqiSJMQZNEG1G-536" vertex="1">
          <mxGeometry x="10" y="14.857142857142856" width="160" height="50.285714285714285" as="geometry" />
        </mxCell>
        <mxCell id="dWmpKs4iqiSJMQZNEG1G-519" value="&lt;b&gt;&lt;font style=&quot;font-size: 21px;&quot;&gt;Web App&lt;/font&gt;&lt;/b&gt;&lt;br&gt;&lt;div style=&quot;&quot;&gt;&lt;span style=&quot;background-color: initial;&quot;&gt;&lt;font style=&quot;font-size: 16px;&quot;&gt;&amp;nbsp; &amp;nbsp; (React)&lt;/font&gt;&lt;/span&gt;&lt;/div&gt;" style="sketch=0;dashed=0;connectable=1;html=1;fillColor=#757575;strokeColor=none;shape=mxgraph.gcp2.frontend_platform_services;part=1;labelPosition=right;verticalLabelPosition=middle;align=left;verticalAlign=middle;spacingLeft=5;fontSize=12;movable=1;resizable=1;rotatable=1;deletable=1;editable=1;locked=0;" parent="dWmpKs4iqiSJMQZNEG1G-518" vertex="1">
          <mxGeometry y="0.5" width="30" height="29.5" relative="1" as="geometry">
            <mxPoint x="5" y="-16" as="offset" />
          </mxGeometry>
        </mxCell>
        <mxCell id="dWmpKs4iqiSJMQZNEG1G-537" value="" style="group" parent="1" vertex="1" connectable="0">
          <mxGeometry x="100" y="260" width="90" height="120" as="geometry" />
        </mxCell>
        <mxCell id="dWmpKs4iqiSJMQZNEG1G-517" value="" style="whiteSpace=wrap;html=1;fillColor=#4D4D4D;" parent="dWmpKs4iqiSJMQZNEG1G-537" vertex="1">
          <mxGeometry width="90" height="119.99999999999999" as="geometry" />
        </mxCell>
        <mxCell id="dWmpKs4iqiSJMQZNEG1G-525" value="Users" style="strokeColor=#dddddd;shadow=1;strokeWidth=1;rounded=1;absoluteArcSize=1;arcSize=2;labelPosition=center;verticalLabelPosition=middle;align=center;verticalAlign=bottom;spacingLeft=0;fontColor=#999999;fontSize=12;whiteSpace=wrap;spacingBottom=2;html=1;" parent="dWmpKs4iqiSJMQZNEG1G-537" vertex="1">
          <mxGeometry x="10" y="13.636363636363635" width="70" height="92.72727272727272" as="geometry" />
        </mxCell>
        <mxCell id="dWmpKs4iqiSJMQZNEG1G-526" value="" style="sketch=0;dashed=0;connectable=0;html=1;fillColor=#757575;strokeColor=none;shape=mxgraph.gcp2.users;part=1;" parent="dWmpKs4iqiSJMQZNEG1G-525" vertex="1">
          <mxGeometry x="0.5" width="50" height="31.5" relative="1" as="geometry">
            <mxPoint x="-25" y="19.25" as="offset" />
          </mxGeometry>
        </mxCell>
        <mxCell id="dWmpKs4iqiSJMQZNEG1G-540" style="edgeStyle=orthogonalEdgeStyle;rounded=0;orthogonalLoop=1;jettySize=auto;html=1;exitX=1;exitY=0.5;exitDx=0;exitDy=0;strokeColor=#00CC00;startArrow=diamond;startFill=1;" parent="1" source="dWmpKs4iqiSJMQZNEG1G-520" edge="1">
          <mxGeometry relative="1" as="geometry">
            <mxPoint x="360" y="570" as="targetPoint" />
            <Array as="points">
              <mxPoint x="360" y="570" />
            </Array>
          </mxGeometry>
        </mxCell>
        <mxCell id="dWmpKs4iqiSJMQZNEG1G-544" style="edgeStyle=orthogonalEdgeStyle;rounded=0;orthogonalLoop=1;jettySize=auto;html=1;exitX=1;exitY=0.5;exitDx=0;exitDy=0;entryX=0.005;entryY=0.466;entryDx=0;entryDy=0;strokeColor=#FF0000;startArrow=diamond;startFill=1;entryPerimeter=0;" parent="1" target="dWmpKs4iqiSJMQZNEG1G-522" edge="1">
          <mxGeometry relative="1" as="geometry">
            <mxPoint x="190" y="321.8300000000001" as="sourcePoint" />
            <mxPoint x="355.68000000000006" y="320.0299999999999" as="targetPoint" />
          </mxGeometry>
        </mxCell>
        <mxCell id="dWmpKs4iqiSJMQZNEG1G-565" value="" style="strokeColor=#dddddd;shadow=1;strokeWidth=1;rounded=1;absoluteArcSize=1;arcSize=2;" parent="1" vertex="1">
          <mxGeometry x="1584" y="10" width="170" height="670" as="geometry" />
        </mxCell>
        <mxCell id="dWmpKs4iqiSJMQZNEG1G-566" value="&lt;span style=&quot;font-size: 21px;&quot;&gt;&lt;b&gt;Blockchain&lt;br&gt;&lt;div style=&quot;text-align: center;&quot;&gt;&lt;b style=&quot;background-color: initial;&quot;&gt;Network&lt;/b&gt;&lt;/div&gt;&lt;/b&gt;&lt;/span&gt;" style="sketch=0;dashed=0;connectable=0;html=1;fillColor=#757575;strokeColor=none;shape=mxgraph.gcp2.network_load_balancer;part=1;labelPosition=right;verticalLabelPosition=middle;align=left;verticalAlign=middle;spacingLeft=5;fontSize=12;" parent="dWmpKs4iqiSJMQZNEG1G-565" vertex="1">
          <mxGeometry y="0.5" width="32" height="32" relative="1" as="geometry">
            <mxPoint x="5" y="-16" as="offset" />
          </mxGeometry>
        </mxCell>
        <mxCell id="dWmpKs4iqiSJMQZNEG1G-568" value="" style="group" parent="1" vertex="1" connectable="0">
          <mxGeometry x="620" y="430" width="180" height="90" as="geometry" />
        </mxCell>
        <mxCell id="dWmpKs4iqiSJMQZNEG1G-532" value="" style="whiteSpace=wrap;html=1;fillColor=#4D4D4D;container=0;" parent="dWmpKs4iqiSJMQZNEG1G-568" vertex="1">
          <mxGeometry width="180" height="90" as="geometry" />
        </mxCell>
        <mxCell id="dWmpKs4iqiSJMQZNEG1G-531" value="&lt;h1&gt;Queue&amp;nbsp;&lt;/h1&gt;" style="whiteSpace=wrap;html=1;fillColor=#FFFFFF;align=right;container=0;" parent="dWmpKs4iqiSJMQZNEG1G-568" vertex="1">
          <mxGeometry x="12.85714285714289" y="15.253805309734505" width="154.2857142857143" height="59.49557522123894" as="geometry" />
        </mxCell>
        <mxCell id="dWmpKs4iqiSJMQZNEG1G-530" value="" style="sketch=0;html=1;aspect=fixed;strokeColor=none;shadow=0;fillColor=#3B8DF1;verticalAlign=top;labelPosition=center;verticalLabelPosition=bottom;shape=mxgraph.gcp2.task_queues_2;container=0;" parent="dWmpKs4iqiSJMQZNEG1G-568" vertex="1">
          <mxGeometry x="20" y="29.75" width="50" height="30.5" as="geometry" />
        </mxCell>
        <mxCell id="dWmpKs4iqiSJMQZNEG1G-569" style="edgeStyle=orthogonalEdgeStyle;rounded=0;orthogonalLoop=1;jettySize=auto;html=1;exitX=1;exitY=0.5;exitDx=0;exitDy=0;entryX=0;entryY=0.5;entryDx=0;entryDy=0;strokeColor=#FF0000;startArrow=diamond;startFill=1;" parent="1" source="dWmpKs4iqiSJMQZNEG1G-555" target="Sqv-9c3KXrAuvBU_Zxfx-8" edge="1">
          <mxGeometry relative="1" as="geometry" />
        </mxCell>
        <mxCell id="dWmpKs4iqiSJMQZNEG1G-573" value="&lt;h1&gt;&lt;font color=&quot;#ff0000&quot;&gt;&lt;b&gt;上傳資料&lt;/b&gt;&lt;/font&gt;&lt;/h1&gt;" style="text;strokeColor=none;align=center;fillColor=none;html=1;verticalAlign=middle;whiteSpace=wrap;rounded=0;" parent="1" vertex="1">
          <mxGeometry x="220" y="280" width="100" height="30" as="geometry" />
        </mxCell>
        <mxCell id="dWmpKs4iqiSJMQZNEG1G-574" value="&lt;h1 style=&quot;border-color: var(--border-color); font-family: Helvetica; font-style: normal; font-variant-ligatures: normal; font-variant-caps: normal; letter-spacing: normal; orphans: 2; text-align: center; text-indent: 0px; text-transform: none; widows: 2; word-spacing: 0px; -webkit-text-stroke-width: 0px; background-color: rgb(251, 251, 251); text-decoration-thickness: initial; text-decoration-style: initial; text-decoration-color: initial;&quot;&gt;&lt;font color=&quot;#00cc00&quot; style=&quot;border-color: var(--border-color);&quot;&gt;&lt;b style=&quot;border-color: var(--border-color);&quot;&gt;查詢資料&lt;/b&gt;&lt;/font&gt;&lt;/h1&gt;" style="text;whiteSpace=wrap;html=1;" parent="1" vertex="1">
          <mxGeometry x="240" y="510" width="130" height="80" as="geometry" />
        </mxCell>
        <mxCell id="Sqv-9c3KXrAuvBU_Zxfx-2" style="edgeStyle=orthogonalEdgeStyle;rounded=0;orthogonalLoop=1;jettySize=auto;html=1;exitX=1;exitY=0.5;exitDx=0;exitDy=0;strokeColor=#FF0000;startArrow=diamond;startFill=1;entryX=-0.004;entryY=0.694;entryDx=0;entryDy=0;entryPerimeter=0;" edge="1" parent="1" source="dWmpKs4iqiSJMQZNEG1G-532" target="dWmpKs4iqiSJMQZNEG1G-565">
          <mxGeometry relative="1" as="geometry">
            <mxPoint x="800" y="424.5" as="sourcePoint" />
            <mxPoint x="1570" y="425" as="targetPoint" />
          </mxGeometry>
        </mxCell>
        <mxCell id="Sqv-9c3KXrAuvBU_Zxfx-5" style="edgeStyle=orthogonalEdgeStyle;rounded=0;orthogonalLoop=1;jettySize=auto;html=1;exitX=1.005;exitY=0.305;exitDx=0;exitDy=0;entryX=0;entryY=0.5;entryDx=0;entryDy=0;exitPerimeter=0;strokeColor=#FF0000;startArrow=diamond;startFill=1;" edge="1" parent="1" source="dWmpKs4iqiSJMQZNEG1G-522" target="dWmpKs4iqiSJMQZNEG1G-555">
          <mxGeometry relative="1" as="geometry" />
        </mxCell>
        <mxCell id="Sqv-9c3KXrAuvBU_Zxfx-12" value="" style="group" vertex="1" connectable="0" parent="1">
          <mxGeometry x="890" y="90" width="180" height="250" as="geometry" />
        </mxCell>
        <mxCell id="Sqv-9c3KXrAuvBU_Zxfx-8" value="" style="whiteSpace=wrap;html=1;fillColor=#4D4D4D;container=0;" vertex="1" parent="Sqv-9c3KXrAuvBU_Zxfx-12">
          <mxGeometry width="180" height="250" as="geometry" />
        </mxCell>
        <mxCell id="Sqv-9c3KXrAuvBU_Zxfx-9" value="&lt;blockquote style=&quot;margin: 0 0 0 40px; border: none; padding: 0px;&quot;&gt;&lt;span style=&quot;background-color: initial;&quot;&gt;&lt;b&gt;&lt;font style=&quot;font-size: 18px;&quot;&gt;&amp;nbsp; &amp;nbsp; &amp;nbsp;&lt;font style=&quot;&quot;&gt;MQTT&lt;/font&gt;&lt;/font&gt;&lt;/b&gt;&lt;/span&gt;&lt;/blockquote&gt;&lt;blockquote style=&quot;margin: 0px 0px 0px 40px; border: none; padding: 0px;&quot;&gt;&lt;span style=&quot;background-color: initial;&quot;&gt;&lt;b&gt;&lt;font size=&quot;3&quot;&gt;&amp;nbsp; &amp;nbsp; &amp;nbsp; &amp;nbsp;Broker&amp;nbsp;&amp;nbsp;&lt;/font&gt;&lt;/b&gt;&lt;/span&gt;&lt;/blockquote&gt;" style="whiteSpace=wrap;html=1;fillColor=#FFFFFF;align=center;container=0;" vertex="1" parent="Sqv-9c3KXrAuvBU_Zxfx-12">
          <mxGeometry x="12.860000000000014" y="55.55555555555556" width="157.14" height="152.08333333333334" as="geometry" />
        </mxCell>
        <mxCell id="Sqv-9c3KXrAuvBU_Zxfx-10" value="" style="sketch=0;html=1;verticalAlign=top;labelPosition=center;verticalLabelPosition=bottom;align=center;spacingTop=-6;fontSize=11;fontStyle=1;fontColor=#999999;shape=image;aspect=fixed;imageAspect=0;image=data:image/svg+xml,PHN2ZyB4bWxucz0iaHR0cDovL3d3dy53My5vcmcvMjAwMC9zdmciIHhtbG5zOnY9Imh0dHBzOi8vdmVjdGEuaW8vbmFubyIgd2lkdGg9IjE5LjkzMzEzNDA3ODk3OTQ5MiIgaGVpZ2h0PSIxMC44NjAwMDA2MTAzNTE1NjIiIHZpZXdCb3g9IjAuMDAwMDI2NTAxNDY0MTYyNzIwMzY3IC0zLjgxMjY2MDA1NDMzNjQ0NzVlLTggMTkuOTMzMTM0MDc4OTc5NDkyIDEwLjg2MDAwMDYxMDM1MTU2MiI+JiN4YTsJPHN0eWxlIHR5cGU9InRleHQvY3NzIj4mI3hhOwkuc3Qwe2ZpbGw6IzQyODVmNDt9JiN4YTsJLnN0MXtmaWxsOiM2NjlkZjY7fSYjeGE7CS5zdDJ7ZmlsbDojYWVjYmZhO30mI3hhOwk8L3N0eWxlPiYjeGE7CTxwYXRoIGNsYXNzPSJzdDAiIGQ9Ik0xOS41NjMgMEg3LjE5M2EuMzIuMzIgMCAwIDAtLjMyLjMzdjIuMTZhLjMyLjMyIDAgMCAwIC4zMi4zMmgxMi4zN2EuMzIuMzIgMCAwIDAgLjM3LS4zMlYuMzNhLjMyLjMyIDAgMCAwLS4zMS0uMzN6TTguNDIzIDIuMTRhLjcuNyAwIDEgMSAuNy0uN2gwYS43LjcgMCAwIDEtLjcuN3ptMTEuMTQgMS45SDcuMTkzYS4zMi4zMiAwIDAgMC0uMzIuMzJ2Mi4xNWEuMzIuMzIgMCAwIDAgLjMyLjMyaDEyLjM3YS4zMi4zMiAwIDAgMCAuMzItLjMyVjQuMzZhLjMyLjMyIDAgMCAwLS4zMi0uMzJ6TTguNDIzIDYuMThhLjcuNyAwIDEgMSAuNy0uN2gwYS43LjcgMCAwIDEtLjcuN3ptMTEuMTkgMS44N0g3LjI1M2EuMzIuMzIgMCAwIDAtLjMyLjMydjIuMTZhLjMyLjMyIDAgMCAwIC4zMi4zM2gxMi4zNmEuMzIuMzIgMCAwIDAgLjMyLS4zM1Y4LjM3YS4zMi4zMiAwIDAgMC0uMzItLjMyem0tMTEuMTQgMi4xM2EuNzEuNzEgMCAwIDEtLjctLjcxLjcxLjcxIDAgMCAxIDEuNDEgMCAuNzEuNzEgMCAwIDEtLjcxLjcxeiIvPiYjeGE7CTxwYXRoIGNsYXNzPSJzdDEiIGQ9Ik00LjY3MyAzLjI5aC0yLjEzYS44MTIuODEyIDAgMCAxLS4yMS0xLjYxaDIuMzRhLjgxNS44MTUgMCAxIDEgLjI2IDEuNjF6Ii8+JiN4YTsJPHBhdGggY2xhc3M9InN0MiIgZD0iTTQuNjczIDYuMjRILjg1M2EuODIuODIgMCAwIDEtLjIxLTEuNjJoNGEuODIzLjgyMyAwIDAgMSAuMjkgMS42MnoiLz4mI3hhOwk8cGF0aCBjbGFzcz0ic3QxIiBkPSJNNC42NzMgOS4xOGgtMi4xM2EuODEyLjgxMiAwIDAgMS0uMjEtMS42MWgyLjM0YS44MTUuODE1IDAgMCAxIC4yNiAxLjYxeiIvPiYjeGE7PC9zdmc+;container=0;" vertex="1" parent="Sqv-9c3KXrAuvBU_Zxfx-12">
          <mxGeometry x="30" y="119.59848484848497" width="26.635298295454543" height="14.585404829545457" as="geometry">
            <mxRectangle x="780" y="340" width="100" height="30" as="alternateBounds" />
          </mxGeometry>
        </mxCell>
        <mxCell id="Sqv-9c3KXrAuvBU_Zxfx-13" value="" style="group" vertex="1" connectable="0" parent="1">
          <mxGeometry x="610" y="170" width="180" height="90" as="geometry" />
        </mxCell>
        <mxCell id="dWmpKs4iqiSJMQZNEG1G-555" value="" style="whiteSpace=wrap;html=1;fillColor=#4D4D4D;container=0;" parent="Sqv-9c3KXrAuvBU_Zxfx-13" vertex="1">
          <mxGeometry width="180" height="90" as="geometry" />
        </mxCell>
        <mxCell id="dWmpKs4iqiSJMQZNEG1G-556" value="&lt;blockquote style=&quot;margin: 0 0 0 40px; border: none; padding: 0px;&quot;&gt;&lt;span style=&quot;background-color: initial;&quot;&gt;&lt;b&gt;&lt;font style=&quot;font-size: 18px;&quot;&gt;&amp;nbsp; &amp;nbsp; &amp;nbsp;&lt;font style=&quot;&quot;&gt;MQTT&lt;/font&gt;&lt;/font&gt;&lt;/b&gt;&lt;/span&gt;&lt;/blockquote&gt;&lt;blockquote style=&quot;margin: 0px 0px 0px 40px; border: none; padding: 0px;&quot;&gt;&lt;span style=&quot;background-color: initial;&quot;&gt;&lt;b&gt;&lt;font size=&quot;3&quot;&gt;&amp;nbsp; &amp;nbsp; &amp;nbsp; &amp;nbsp;Publisher&amp;nbsp;&amp;nbsp;&lt;/font&gt;&lt;/b&gt;&lt;/span&gt;&lt;/blockquote&gt;" style="whiteSpace=wrap;html=1;fillColor=#FFFFFF;align=center;container=0;" parent="Sqv-9c3KXrAuvBU_Zxfx-13" vertex="1">
          <mxGeometry x="12.860000000000014" y="15.25" width="157.14" height="59.5" as="geometry" />
        </mxCell>
        <mxCell id="dWmpKs4iqiSJMQZNEG1G-558" value="" style="sketch=0;html=1;verticalAlign=top;labelPosition=center;verticalLabelPosition=bottom;align=center;spacingTop=-6;fontSize=11;fontStyle=1;fontColor=#999999;shape=image;aspect=fixed;imageAspect=0;image=data:image/svg+xml,PHN2ZyB4bWxucz0iaHR0cDovL3d3dy53My5vcmcvMjAwMC9zdmciIHhtbG5zOnY9Imh0dHBzOi8vdmVjdGEuaW8vbmFubyIgd2lkdGg9IjE5LjkzMzEzNDA3ODk3OTQ5MiIgaGVpZ2h0PSIxMC44NjAwMDA2MTAzNTE1NjIiIHZpZXdCb3g9IjAuMDAwMDI2NTAxNDY0MTYyNzIwMzY3IC0zLjgxMjY2MDA1NDMzNjQ0NzVlLTggMTkuOTMzMTM0MDc4OTc5NDkyIDEwLjg2MDAwMDYxMDM1MTU2MiI+JiN4YTsJPHN0eWxlIHR5cGU9InRleHQvY3NzIj4mI3hhOwkuc3Qwe2ZpbGw6IzQyODVmNDt9JiN4YTsJLnN0MXtmaWxsOiM2NjlkZjY7fSYjeGE7CS5zdDJ7ZmlsbDojYWVjYmZhO30mI3hhOwk8L3N0eWxlPiYjeGE7CTxwYXRoIGNsYXNzPSJzdDAiIGQ9Ik0xOS41NjMgMEg3LjE5M2EuMzIuMzIgMCAwIDAtLjMyLjMzdjIuMTZhLjMyLjMyIDAgMCAwIC4zMi4zMmgxMi4zN2EuMzIuMzIgMCAwIDAgLjM3LS4zMlYuMzNhLjMyLjMyIDAgMCAwLS4zMS0uMzN6TTguNDIzIDIuMTRhLjcuNyAwIDEgMSAuNy0uN2gwYS43LjcgMCAwIDEtLjcuN3ptMTEuMTQgMS45SDcuMTkzYS4zMi4zMiAwIDAgMC0uMzIuMzJ2Mi4xNWEuMzIuMzIgMCAwIDAgLjMyLjMyaDEyLjM3YS4zMi4zMiAwIDAgMCAuMzItLjMyVjQuMzZhLjMyLjMyIDAgMCAwLS4zMi0uMzJ6TTguNDIzIDYuMThhLjcuNyAwIDEgMSAuNy0uN2gwYS43LjcgMCAwIDEtLjcuN3ptMTEuMTkgMS44N0g3LjI1M2EuMzIuMzIgMCAwIDAtLjMyLjMydjIuMTZhLjMyLjMyIDAgMCAwIC4zMi4zM2gxMi4zNmEuMzIuMzIgMCAwIDAgLjMyLS4zM1Y4LjM3YS4zMi4zMiAwIDAgMC0uMzItLjMyem0tMTEuMTQgMi4xM2EuNzEuNzEgMCAwIDEtLjctLjcxLjcxLjcxIDAgMCAxIDEuNDEgMCAuNzEuNzEgMCAwIDEtLjcxLjcxeiIvPiYjeGE7CTxwYXRoIGNsYXNzPSJzdDEiIGQ9Ik00LjY3MyAzLjI5aC0yLjEzYS44MTIuODEyIDAgMCAxLS4yMS0xLjYxaDIuMzRhLjgxNS44MTUgMCAxIDEgLjI2IDEuNjF6Ii8+JiN4YTsJPHBhdGggY2xhc3M9InN0MiIgZD0iTTQuNjczIDYuMjRILjg1M2EuODIuODIgMCAwIDEtLjIxLTEuNjJoNGEuODIzLjgyMyAwIDAgMSAuMjkgMS42MnoiLz4mI3hhOwk8cGF0aCBjbGFzcz0ic3QxIiBkPSJNNC42NzMgOS4xOGgtMi4xM2EuODEyLjgxMiAwIDAgMS0uMjEtMS42MWgyLjM0YS44MTUuODE1IDAgMCAxIC4yNiAxLjYxeiIvPiYjeGE7PC9zdmc+;container=0;" parent="Sqv-9c3KXrAuvBU_Zxfx-13" vertex="1">
          <mxGeometry x="30" y="33.27000000000004" width="38.574" height="21.123" as="geometry">
            <mxRectangle x="780" y="340" width="100" height="30" as="alternateBounds" />
          </mxGeometry>
        </mxCell>
        <mxCell id="Sqv-9c3KXrAuvBU_Zxfx-14" value="" style="group" vertex="1" connectable="0" parent="1">
          <mxGeometry x="1280" y="100" width="200" height="70" as="geometry" />
        </mxCell>
        <mxCell id="Sqv-9c3KXrAuvBU_Zxfx-15" value="" style="whiteSpace=wrap;html=1;fillColor=#4D4D4D;container=0;" vertex="1" parent="Sqv-9c3KXrAuvBU_Zxfx-14">
          <mxGeometry width="200" height="70" as="geometry" />
        </mxCell>
        <mxCell id="Sqv-9c3KXrAuvBU_Zxfx-16" value="&lt;blockquote style=&quot;margin: 0 0 0 40px; border: none; padding: 0px;&quot;&gt;&lt;span style=&quot;background-color: initial;&quot;&gt;&lt;b&gt;&lt;font style=&quot;font-size: 14px;&quot;&gt;&amp;nbsp; &amp;nbsp; &lt;font style=&quot;&quot;&gt;&amp;nbsp;&lt;font style=&quot;&quot;&gt;MQTT&lt;/font&gt;&lt;/font&gt;&lt;/font&gt;&lt;/b&gt;&lt;/span&gt;&lt;/blockquote&gt;&lt;blockquote style=&quot;margin: 0px 0px 0px 40px; border: none; padding: 0px;&quot;&gt;&lt;span style=&quot;background-color: initial;&quot;&gt;&lt;b&gt;&lt;font style=&quot;font-size: 14px;&quot;&gt;&amp;nbsp; &amp;nbsp; &amp;nbsp; &amp;nbsp;subscriber&amp;nbsp;&amp;nbsp;&lt;/font&gt;&lt;/b&gt;&lt;/span&gt;&lt;/blockquote&gt;" style="whiteSpace=wrap;html=1;fillColor=#FFFFFF;align=center;container=0;" vertex="1" parent="Sqv-9c3KXrAuvBU_Zxfx-14">
          <mxGeometry x="14.288888888888904" y="11.86111111111111" width="174.60000000000002" height="46.27777777777778" as="geometry" />
        </mxCell>
        <mxCell id="Sqv-9c3KXrAuvBU_Zxfx-17" value="" style="sketch=0;html=1;verticalAlign=top;labelPosition=center;verticalLabelPosition=bottom;align=center;spacingTop=-6;fontSize=11;fontStyle=1;fontColor=#999999;shape=image;aspect=fixed;imageAspect=0;image=data:image/svg+xml,PHN2ZyB4bWxucz0iaHR0cDovL3d3dy53My5vcmcvMjAwMC9zdmciIHhtbG5zOnY9Imh0dHBzOi8vdmVjdGEuaW8vbmFubyIgd2lkdGg9IjE5LjkzMzEzNDA3ODk3OTQ5MiIgaGVpZ2h0PSIxMC44NjAwMDA2MTAzNTE1NjIiIHZpZXdCb3g9IjAuMDAwMDI2NTAxNDY0MTYyNzIwMzY3IC0zLjgxMjY2MDA1NDMzNjQ0NzVlLTggMTkuOTMzMTM0MDc4OTc5NDkyIDEwLjg2MDAwMDYxMDM1MTU2MiI+JiN4YTsJPHN0eWxlIHR5cGU9InRleHQvY3NzIj4mI3hhOwkuc3Qwe2ZpbGw6IzQyODVmNDt9JiN4YTsJLnN0MXtmaWxsOiM2NjlkZjY7fSYjeGE7CS5zdDJ7ZmlsbDojYWVjYmZhO30mI3hhOwk8L3N0eWxlPiYjeGE7CTxwYXRoIGNsYXNzPSJzdDAiIGQ9Ik0xOS41NjMgMEg3LjE5M2EuMzIuMzIgMCAwIDAtLjMyLjMzdjIuMTZhLjMyLjMyIDAgMCAwIC4zMi4zMmgxMi4zN2EuMzIuMzIgMCAwIDAgLjM3LS4zMlYuMzNhLjMyLjMyIDAgMCAwLS4zMS0uMzN6TTguNDIzIDIuMTRhLjcuNyAwIDEgMSAuNy0uN2gwYS43LjcgMCAwIDEtLjcuN3ptMTEuMTQgMS45SDcuMTkzYS4zMi4zMiAwIDAgMC0uMzIuMzJ2Mi4xNWEuMzIuMzIgMCAwIDAgLjMyLjMyaDEyLjM3YS4zMi4zMiAwIDAgMCAuMzItLjMyVjQuMzZhLjMyLjMyIDAgMCAwLS4zMi0uMzJ6TTguNDIzIDYuMThhLjcuNyAwIDEgMSAuNy0uN2gwYS43LjcgMCAwIDEtLjcuN3ptMTEuMTkgMS44N0g3LjI1M2EuMzIuMzIgMCAwIDAtLjMyLjMydjIuMTZhLjMyLjMyIDAgMCAwIC4zMi4zM2gxMi4zNmEuMzIuMzIgMCAwIDAgLjMyLS4zM1Y4LjM3YS4zMi4zMiAwIDAgMC0uMzItLjMyem0tMTEuMTQgMi4xM2EuNzEuNzEgMCAwIDEtLjctLjcxLjcxLjcxIDAgMCAxIDEuNDEgMCAuNzEuNzEgMCAwIDEtLjcxLjcxeiIvPiYjeGE7CTxwYXRoIGNsYXNzPSJzdDEiIGQ9Ik00LjY3MyAzLjI5aC0yLjEzYS44MTIuODEyIDAgMCAxLS4yMS0xLjYxaDIuMzRhLjgxNS44MTUgMCAxIDEgLjI2IDEuNjF6Ii8+JiN4YTsJPHBhdGggY2xhc3M9InN0MiIgZD0iTTQuNjczIDYuMjRILjg1M2EuODIuODIgMCAwIDEtLjIxLTEuNjJoNGEuODIzLjgyMyAwIDAgMSAuMjkgMS42MnoiLz4mI3hhOwk8cGF0aCBjbGFzcz0ic3QxIiBkPSJNNC42NzMgOS4xOGgtMi4xM2EuODEyLjgxMiAwIDAgMS0uMjEtMS42MWgyLjM0YS44MTUuODE1IDAgMCAxIC4yNiAxLjYxeiIvPiYjeGE7PC9zdmc+;container=0;" vertex="1" parent="Sqv-9c3KXrAuvBU_Zxfx-14">
          <mxGeometry x="33.333333333333336" y="25.876666666666697" width="27.858999999999998" height="15.255500000000001" as="geometry">
            <mxRectangle x="780" y="340" width="100" height="30" as="alternateBounds" />
          </mxGeometry>
        </mxCell>
        <mxCell id="Sqv-9c3KXrAuvBU_Zxfx-26" value="" style="group" vertex="1" connectable="0" parent="1">
          <mxGeometry x="1280" y="180" width="200" height="70" as="geometry" />
        </mxCell>
        <mxCell id="Sqv-9c3KXrAuvBU_Zxfx-27" value="" style="whiteSpace=wrap;html=1;fillColor=#4D4D4D;container=0;" vertex="1" parent="Sqv-9c3KXrAuvBU_Zxfx-26">
          <mxGeometry width="200" height="70" as="geometry" />
        </mxCell>
        <mxCell id="Sqv-9c3KXrAuvBU_Zxfx-28" value="&lt;blockquote style=&quot;margin: 0 0 0 40px; border: none; padding: 0px;&quot;&gt;&lt;span style=&quot;background-color: initial;&quot;&gt;&lt;b&gt;&lt;font style=&quot;font-size: 14px;&quot;&gt;&amp;nbsp; &amp;nbsp; &lt;font style=&quot;&quot;&gt;&amp;nbsp;&lt;font style=&quot;&quot;&gt;MQTT&lt;/font&gt;&lt;/font&gt;&lt;/font&gt;&lt;/b&gt;&lt;/span&gt;&lt;/blockquote&gt;&lt;blockquote style=&quot;margin: 0px 0px 0px 40px; border: none; padding: 0px;&quot;&gt;&lt;span style=&quot;background-color: initial;&quot;&gt;&lt;b&gt;&lt;font style=&quot;font-size: 14px;&quot;&gt;&amp;nbsp; &amp;nbsp; &amp;nbsp; &amp;nbsp;subscriber&amp;nbsp;&amp;nbsp;&lt;/font&gt;&lt;/b&gt;&lt;/span&gt;&lt;/blockquote&gt;" style="whiteSpace=wrap;html=1;fillColor=#FFFFFF;align=center;container=0;" vertex="1" parent="Sqv-9c3KXrAuvBU_Zxfx-26">
          <mxGeometry x="14.288888888888904" y="11.86111111111111" width="174.60000000000002" height="46.27777777777778" as="geometry" />
        </mxCell>
        <mxCell id="Sqv-9c3KXrAuvBU_Zxfx-29" value="" style="sketch=0;html=1;verticalAlign=top;labelPosition=center;verticalLabelPosition=bottom;align=center;spacingTop=-6;fontSize=11;fontStyle=1;fontColor=#999999;shape=image;aspect=fixed;imageAspect=0;image=data:image/svg+xml,PHN2ZyB4bWxucz0iaHR0cDovL3d3dy53My5vcmcvMjAwMC9zdmciIHhtbG5zOnY9Imh0dHBzOi8vdmVjdGEuaW8vbmFubyIgd2lkdGg9IjE5LjkzMzEzNDA3ODk3OTQ5MiIgaGVpZ2h0PSIxMC44NjAwMDA2MTAzNTE1NjIiIHZpZXdCb3g9IjAuMDAwMDI2NTAxNDY0MTYyNzIwMzY3IC0zLjgxMjY2MDA1NDMzNjQ0NzVlLTggMTkuOTMzMTM0MDc4OTc5NDkyIDEwLjg2MDAwMDYxMDM1MTU2MiI+JiN4YTsJPHN0eWxlIHR5cGU9InRleHQvY3NzIj4mI3hhOwkuc3Qwe2ZpbGw6IzQyODVmNDt9JiN4YTsJLnN0MXtmaWxsOiM2NjlkZjY7fSYjeGE7CS5zdDJ7ZmlsbDojYWVjYmZhO30mI3hhOwk8L3N0eWxlPiYjeGE7CTxwYXRoIGNsYXNzPSJzdDAiIGQ9Ik0xOS41NjMgMEg3LjE5M2EuMzIuMzIgMCAwIDAtLjMyLjMzdjIuMTZhLjMyLjMyIDAgMCAwIC4zMi4zMmgxMi4zN2EuMzIuMzIgMCAwIDAgLjM3LS4zMlYuMzNhLjMyLjMyIDAgMCAwLS4zMS0uMzN6TTguNDIzIDIuMTRhLjcuNyAwIDEgMSAuNy0uN2gwYS43LjcgMCAwIDEtLjcuN3ptMTEuMTQgMS45SDcuMTkzYS4zMi4zMiAwIDAgMC0uMzIuMzJ2Mi4xNWEuMzIuMzIgMCAwIDAgLjMyLjMyaDEyLjM3YS4zMi4zMiAwIDAgMCAuMzItLjMyVjQuMzZhLjMyLjMyIDAgMCAwLS4zMi0uMzJ6TTguNDIzIDYuMThhLjcuNyAwIDEgMSAuNy0uN2gwYS43LjcgMCAwIDEtLjcuN3ptMTEuMTkgMS44N0g3LjI1M2EuMzIuMzIgMCAwIDAtLjMyLjMydjIuMTZhLjMyLjMyIDAgMCAwIC4zMi4zM2gxMi4zNmEuMzIuMzIgMCAwIDAgLjMyLS4zM1Y4LjM3YS4zMi4zMiAwIDAgMC0uMzItLjMyem0tMTEuMTQgMi4xM2EuNzEuNzEgMCAwIDEtLjctLjcxLjcxLjcxIDAgMCAxIDEuNDEgMCAuNzEuNzEgMCAwIDEtLjcxLjcxeiIvPiYjeGE7CTxwYXRoIGNsYXNzPSJzdDEiIGQ9Ik00LjY3MyAzLjI5aC0yLjEzYS44MTIuODEyIDAgMCAxLS4yMS0xLjYxaDIuMzRhLjgxNS44MTUgMCAxIDEgLjI2IDEuNjF6Ii8+JiN4YTsJPHBhdGggY2xhc3M9InN0MiIgZD0iTTQuNjczIDYuMjRILjg1M2EuODIuODIgMCAwIDEtLjIxLTEuNjJoNGEuODIzLjgyMyAwIDAgMSAuMjkgMS42MnoiLz4mI3hhOwk8cGF0aCBjbGFzcz0ic3QxIiBkPSJNNC42NzMgOS4xOGgtMi4xM2EuODEyLjgxMiAwIDAgMS0uMjEtMS42MWgyLjM0YS44MTUuODE1IDAgMCAxIC4yNiAxLjYxeiIvPiYjeGE7PC9zdmc+;container=0;" vertex="1" parent="Sqv-9c3KXrAuvBU_Zxfx-26">
          <mxGeometry x="33.333333333333336" y="25.876666666666697" width="27.858999999999998" height="15.255500000000001" as="geometry">
            <mxRectangle x="780" y="340" width="100" height="30" as="alternateBounds" />
          </mxGeometry>
        </mxCell>
        <mxCell id="Sqv-9c3KXrAuvBU_Zxfx-30" value="" style="group" vertex="1" connectable="0" parent="1">
          <mxGeometry x="1280" y="260" width="200" height="70" as="geometry" />
        </mxCell>
        <mxCell id="Sqv-9c3KXrAuvBU_Zxfx-31" value="" style="whiteSpace=wrap;html=1;fillColor=#4D4D4D;container=0;" vertex="1" parent="Sqv-9c3KXrAuvBU_Zxfx-30">
          <mxGeometry width="200" height="70" as="geometry" />
        </mxCell>
        <mxCell id="Sqv-9c3KXrAuvBU_Zxfx-32" value="&lt;blockquote style=&quot;margin: 0 0 0 40px; border: none; padding: 0px;&quot;&gt;&lt;span style=&quot;background-color: initial;&quot;&gt;&lt;b&gt;&lt;font style=&quot;font-size: 14px;&quot;&gt;&amp;nbsp; &amp;nbsp; &lt;font style=&quot;&quot;&gt;&amp;nbsp;&lt;font style=&quot;&quot;&gt;MQTT&lt;/font&gt;&lt;/font&gt;&lt;/font&gt;&lt;/b&gt;&lt;/span&gt;&lt;/blockquote&gt;&lt;blockquote style=&quot;margin: 0px 0px 0px 40px; border: none; padding: 0px;&quot;&gt;&lt;span style=&quot;background-color: initial;&quot;&gt;&lt;b&gt;&lt;font style=&quot;font-size: 14px;&quot;&gt;&amp;nbsp; &amp;nbsp; &amp;nbsp; &amp;nbsp;subscriber&amp;nbsp;&amp;nbsp;&lt;/font&gt;&lt;/b&gt;&lt;/span&gt;&lt;/blockquote&gt;" style="whiteSpace=wrap;html=1;fillColor=#FFFFFF;align=center;container=0;" vertex="1" parent="Sqv-9c3KXrAuvBU_Zxfx-30">
          <mxGeometry x="14.288888888888904" y="11.86111111111111" width="174.60000000000002" height="46.27777777777778" as="geometry" />
        </mxCell>
        <mxCell id="Sqv-9c3KXrAuvBU_Zxfx-33" value="" style="sketch=0;html=1;verticalAlign=top;labelPosition=center;verticalLabelPosition=bottom;align=center;spacingTop=-6;fontSize=11;fontStyle=1;fontColor=#999999;shape=image;aspect=fixed;imageAspect=0;image=data:image/svg+xml,PHN2ZyB4bWxucz0iaHR0cDovL3d3dy53My5vcmcvMjAwMC9zdmciIHhtbG5zOnY9Imh0dHBzOi8vdmVjdGEuaW8vbmFubyIgd2lkdGg9IjE5LjkzMzEzNDA3ODk3OTQ5MiIgaGVpZ2h0PSIxMC44NjAwMDA2MTAzNTE1NjIiIHZpZXdCb3g9IjAuMDAwMDI2NTAxNDY0MTYyNzIwMzY3IC0zLjgxMjY2MDA1NDMzNjQ0NzVlLTggMTkuOTMzMTM0MDc4OTc5NDkyIDEwLjg2MDAwMDYxMDM1MTU2MiI+JiN4YTsJPHN0eWxlIHR5cGU9InRleHQvY3NzIj4mI3hhOwkuc3Qwe2ZpbGw6IzQyODVmNDt9JiN4YTsJLnN0MXtmaWxsOiM2NjlkZjY7fSYjeGE7CS5zdDJ7ZmlsbDojYWVjYmZhO30mI3hhOwk8L3N0eWxlPiYjeGE7CTxwYXRoIGNsYXNzPSJzdDAiIGQ9Ik0xOS41NjMgMEg3LjE5M2EuMzIuMzIgMCAwIDAtLjMyLjMzdjIuMTZhLjMyLjMyIDAgMCAwIC4zMi4zMmgxMi4zN2EuMzIuMzIgMCAwIDAgLjM3LS4zMlYuMzNhLjMyLjMyIDAgMCAwLS4zMS0uMzN6TTguNDIzIDIuMTRhLjcuNyAwIDEgMSAuNy0uN2gwYS43LjcgMCAwIDEtLjcuN3ptMTEuMTQgMS45SDcuMTkzYS4zMi4zMiAwIDAgMC0uMzIuMzJ2Mi4xNWEuMzIuMzIgMCAwIDAgLjMyLjMyaDEyLjM3YS4zMi4zMiAwIDAgMCAuMzItLjMyVjQuMzZhLjMyLjMyIDAgMCAwLS4zMi0uMzJ6TTguNDIzIDYuMThhLjcuNyAwIDEgMSAuNy0uN2gwYS43LjcgMCAwIDEtLjcuN3ptMTEuMTkgMS44N0g3LjI1M2EuMzIuMzIgMCAwIDAtLjMyLjMydjIuMTZhLjMyLjMyIDAgMCAwIC4zMi4zM2gxMi4zNmEuMzIuMzIgMCAwIDAgLjMyLS4zM1Y4LjM3YS4zMi4zMiAwIDAgMC0uMzItLjMyem0tMTEuMTQgMi4xM2EuNzEuNzEgMCAwIDEtLjctLjcxLjcxLjcxIDAgMCAxIDEuNDEgMCAuNzEuNzEgMCAwIDEtLjcxLjcxeiIvPiYjeGE7CTxwYXRoIGNsYXNzPSJzdDEiIGQ9Ik00LjY3MyAzLjI5aC0yLjEzYS44MTIuODEyIDAgMCAxLS4yMS0xLjYxaDIuMzRhLjgxNS44MTUgMCAxIDEgLjI2IDEuNjF6Ii8+JiN4YTsJPHBhdGggY2xhc3M9InN0MiIgZD0iTTQuNjczIDYuMjRILjg1M2EuODIuODIgMCAwIDEtLjIxLTEuNjJoNGEuODIzLjgyMyAwIDAgMSAuMjkgMS42MnoiLz4mI3hhOwk8cGF0aCBjbGFzcz0ic3QxIiBkPSJNNC42NzMgOS4xOGgtMi4xM2EuODEyLjgxMiAwIDAgMS0uMjEtMS42MWgyLjM0YS44MTUuODE1IDAgMCAxIC4yNiAxLjYxeiIvPiYjeGE7PC9zdmc+;container=0;" vertex="1" parent="Sqv-9c3KXrAuvBU_Zxfx-30">
          <mxGeometry x="33.333333333333336" y="25.876666666666697" width="27.858999999999998" height="15.255500000000001" as="geometry">
            <mxRectangle x="780" y="340" width="100" height="30" as="alternateBounds" />
          </mxGeometry>
        </mxCell>
        <mxCell id="Sqv-9c3KXrAuvBU_Zxfx-34" value="" style="group" vertex="1" connectable="0" parent="1">
          <mxGeometry x="1280" y="344" width="200" height="70" as="geometry" />
        </mxCell>
        <mxCell id="Sqv-9c3KXrAuvBU_Zxfx-35" value="" style="whiteSpace=wrap;html=1;fillColor=#4D4D4D;container=0;" vertex="1" parent="Sqv-9c3KXrAuvBU_Zxfx-34">
          <mxGeometry width="200" height="70" as="geometry" />
        </mxCell>
        <mxCell id="Sqv-9c3KXrAuvBU_Zxfx-36" value="&lt;blockquote style=&quot;margin: 0 0 0 40px; border: none; padding: 0px;&quot;&gt;&lt;span style=&quot;background-color: initial;&quot;&gt;&lt;b&gt;&lt;font style=&quot;font-size: 14px;&quot;&gt;&amp;nbsp; &amp;nbsp; &lt;font style=&quot;&quot;&gt;&amp;nbsp;&lt;font style=&quot;&quot;&gt;MQTT&lt;/font&gt;&lt;/font&gt;&lt;/font&gt;&lt;/b&gt;&lt;/span&gt;&lt;/blockquote&gt;&lt;blockquote style=&quot;margin: 0px 0px 0px 40px; border: none; padding: 0px;&quot;&gt;&lt;span style=&quot;background-color: initial;&quot;&gt;&lt;b&gt;&lt;font style=&quot;font-size: 14px;&quot;&gt;&amp;nbsp; &amp;nbsp; &amp;nbsp; &amp;nbsp;subscriber&amp;nbsp;&amp;nbsp;&lt;/font&gt;&lt;/b&gt;&lt;/span&gt;&lt;/blockquote&gt;" style="whiteSpace=wrap;html=1;fillColor=#FFFFFF;align=center;container=0;" vertex="1" parent="Sqv-9c3KXrAuvBU_Zxfx-34">
          <mxGeometry x="14.288888888888904" y="11.86111111111111" width="174.60000000000002" height="46.27777777777778" as="geometry" />
        </mxCell>
        <mxCell id="Sqv-9c3KXrAuvBU_Zxfx-37" value="" style="sketch=0;html=1;verticalAlign=top;labelPosition=center;verticalLabelPosition=bottom;align=center;spacingTop=-6;fontSize=11;fontStyle=1;fontColor=#999999;shape=image;aspect=fixed;imageAspect=0;image=data:image/svg+xml,PHN2ZyB4bWxucz0iaHR0cDovL3d3dy53My5vcmcvMjAwMC9zdmciIHhtbG5zOnY9Imh0dHBzOi8vdmVjdGEuaW8vbmFubyIgd2lkdGg9IjE5LjkzMzEzNDA3ODk3OTQ5MiIgaGVpZ2h0PSIxMC44NjAwMDA2MTAzNTE1NjIiIHZpZXdCb3g9IjAuMDAwMDI2NTAxNDY0MTYyNzIwMzY3IC0zLjgxMjY2MDA1NDMzNjQ0NzVlLTggMTkuOTMzMTM0MDc4OTc5NDkyIDEwLjg2MDAwMDYxMDM1MTU2MiI+JiN4YTsJPHN0eWxlIHR5cGU9InRleHQvY3NzIj4mI3hhOwkuc3Qwe2ZpbGw6IzQyODVmNDt9JiN4YTsJLnN0MXtmaWxsOiM2NjlkZjY7fSYjeGE7CS5zdDJ7ZmlsbDojYWVjYmZhO30mI3hhOwk8L3N0eWxlPiYjeGE7CTxwYXRoIGNsYXNzPSJzdDAiIGQ9Ik0xOS41NjMgMEg3LjE5M2EuMzIuMzIgMCAwIDAtLjMyLjMzdjIuMTZhLjMyLjMyIDAgMCAwIC4zMi4zMmgxMi4zN2EuMzIuMzIgMCAwIDAgLjM3LS4zMlYuMzNhLjMyLjMyIDAgMCAwLS4zMS0uMzN6TTguNDIzIDIuMTRhLjcuNyAwIDEgMSAuNy0uN2gwYS43LjcgMCAwIDEtLjcuN3ptMTEuMTQgMS45SDcuMTkzYS4zMi4zMiAwIDAgMC0uMzIuMzJ2Mi4xNWEuMzIuMzIgMCAwIDAgLjMyLjMyaDEyLjM3YS4zMi4zMiAwIDAgMCAuMzItLjMyVjQuMzZhLjMyLjMyIDAgMCAwLS4zMi0uMzJ6TTguNDIzIDYuMThhLjcuNyAwIDEgMSAuNy0uN2gwYS43LjcgMCAwIDEtLjcuN3ptMTEuMTkgMS44N0g3LjI1M2EuMzIuMzIgMCAwIDAtLjMyLjMydjIuMTZhLjMyLjMyIDAgMCAwIC4zMi4zM2gxMi4zNmEuMzIuMzIgMCAwIDAgLjMyLS4zM1Y4LjM3YS4zMi4zMiAwIDAgMC0uMzItLjMyem0tMTEuMTQgMi4xM2EuNzEuNzEgMCAwIDEtLjctLjcxLjcxLjcxIDAgMCAxIDEuNDEgMCAuNzEuNzEgMCAwIDEtLjcxLjcxeiIvPiYjeGE7CTxwYXRoIGNsYXNzPSJzdDEiIGQ9Ik00LjY3MyAzLjI5aC0yLjEzYS44MTIuODEyIDAgMCAxLS4yMS0xLjYxaDIuMzRhLjgxNS44MTUgMCAxIDEgLjI2IDEuNjF6Ii8+JiN4YTsJPHBhdGggY2xhc3M9InN0MiIgZD0iTTQuNjczIDYuMjRILjg1M2EuODIuODIgMCAwIDEtLjIxLTEuNjJoNGEuODIzLjgyMyAwIDAgMSAuMjkgMS42MnoiLz4mI3hhOwk8cGF0aCBjbGFzcz0ic3QxIiBkPSJNNC42NzMgOS4xOGgtMi4xM2EuODEyLjgxMiAwIDAgMS0uMjEtMS42MWgyLjM0YS44MTUuODE1IDAgMCAxIC4yNiAxLjYxeiIvPiYjeGE7PC9zdmc+;container=0;" vertex="1" parent="Sqv-9c3KXrAuvBU_Zxfx-34">
          <mxGeometry x="33.333333333333336" y="25.876666666666697" width="27.858999999999998" height="15.255500000000001" as="geometry">
            <mxRectangle x="780" y="340" width="100" height="30" as="alternateBounds" />
          </mxGeometry>
        </mxCell>
        <mxCell id="Sqv-9c3KXrAuvBU_Zxfx-38" value="" style="group" vertex="1" connectable="0" parent="1">
          <mxGeometry x="1280" y="23" width="200" height="70" as="geometry" />
        </mxCell>
        <mxCell id="Sqv-9c3KXrAuvBU_Zxfx-39" value="" style="whiteSpace=wrap;html=1;fillColor=#4D4D4D;container=0;" vertex="1" parent="Sqv-9c3KXrAuvBU_Zxfx-38">
          <mxGeometry width="200" height="70" as="geometry" />
        </mxCell>
        <mxCell id="Sqv-9c3KXrAuvBU_Zxfx-40" value="&lt;blockquote style=&quot;margin: 0 0 0 40px; border: none; padding: 0px;&quot;&gt;&lt;span style=&quot;background-color: initial;&quot;&gt;&lt;b&gt;&lt;font style=&quot;font-size: 14px;&quot;&gt;&amp;nbsp; &amp;nbsp; &lt;font style=&quot;&quot;&gt;&amp;nbsp;&lt;font style=&quot;&quot;&gt;MQTT&lt;/font&gt;&lt;/font&gt;&lt;/font&gt;&lt;/b&gt;&lt;/span&gt;&lt;/blockquote&gt;&lt;blockquote style=&quot;margin: 0px 0px 0px 40px; border: none; padding: 0px;&quot;&gt;&lt;span style=&quot;background-color: initial;&quot;&gt;&lt;b&gt;&lt;font style=&quot;font-size: 14px;&quot;&gt;&amp;nbsp; &amp;nbsp; &amp;nbsp; &amp;nbsp;subscriber&amp;nbsp;&amp;nbsp;&lt;/font&gt;&lt;/b&gt;&lt;/span&gt;&lt;/blockquote&gt;" style="whiteSpace=wrap;html=1;fillColor=#FFFFFF;align=center;container=0;" vertex="1" parent="Sqv-9c3KXrAuvBU_Zxfx-38">
          <mxGeometry x="14.288888888888904" y="11.86111111111111" width="174.60000000000002" height="46.27777777777778" as="geometry" />
        </mxCell>
        <mxCell id="Sqv-9c3KXrAuvBU_Zxfx-41" value="" style="sketch=0;html=1;verticalAlign=top;labelPosition=center;verticalLabelPosition=bottom;align=center;spacingTop=-6;fontSize=11;fontStyle=1;fontColor=#999999;shape=image;aspect=fixed;imageAspect=0;image=data:image/svg+xml,PHN2ZyB4bWxucz0iaHR0cDovL3d3dy53My5vcmcvMjAwMC9zdmciIHhtbG5zOnY9Imh0dHBzOi8vdmVjdGEuaW8vbmFubyIgd2lkdGg9IjE5LjkzMzEzNDA3ODk3OTQ5MiIgaGVpZ2h0PSIxMC44NjAwMDA2MTAzNTE1NjIiIHZpZXdCb3g9IjAuMDAwMDI2NTAxNDY0MTYyNzIwMzY3IC0zLjgxMjY2MDA1NDMzNjQ0NzVlLTggMTkuOTMzMTM0MDc4OTc5NDkyIDEwLjg2MDAwMDYxMDM1MTU2MiI+JiN4YTsJPHN0eWxlIHR5cGU9InRleHQvY3NzIj4mI3hhOwkuc3Qwe2ZpbGw6IzQyODVmNDt9JiN4YTsJLnN0MXtmaWxsOiM2NjlkZjY7fSYjeGE7CS5zdDJ7ZmlsbDojYWVjYmZhO30mI3hhOwk8L3N0eWxlPiYjeGE7CTxwYXRoIGNsYXNzPSJzdDAiIGQ9Ik0xOS41NjMgMEg3LjE5M2EuMzIuMzIgMCAwIDAtLjMyLjMzdjIuMTZhLjMyLjMyIDAgMCAwIC4zMi4zMmgxMi4zN2EuMzIuMzIgMCAwIDAgLjM3LS4zMlYuMzNhLjMyLjMyIDAgMCAwLS4zMS0uMzN6TTguNDIzIDIuMTRhLjcuNyAwIDEgMSAuNy0uN2gwYS43LjcgMCAwIDEtLjcuN3ptMTEuMTQgMS45SDcuMTkzYS4zMi4zMiAwIDAgMC0uMzIuMzJ2Mi4xNWEuMzIuMzIgMCAwIDAgLjMyLjMyaDEyLjM3YS4zMi4zMiAwIDAgMCAuMzItLjMyVjQuMzZhLjMyLjMyIDAgMCAwLS4zMi0uMzJ6TTguNDIzIDYuMThhLjcuNyAwIDEgMSAuNy0uN2gwYS43LjcgMCAwIDEtLjcuN3ptMTEuMTkgMS44N0g3LjI1M2EuMzIuMzIgMCAwIDAtLjMyLjMydjIuMTZhLjMyLjMyIDAgMCAwIC4zMi4zM2gxMi4zNmEuMzIuMzIgMCAwIDAgLjMyLS4zM1Y4LjM3YS4zMi4zMiAwIDAgMC0uMzItLjMyem0tMTEuMTQgMi4xM2EuNzEuNzEgMCAwIDEtLjctLjcxLjcxLjcxIDAgMCAxIDEuNDEgMCAuNzEuNzEgMCAwIDEtLjcxLjcxeiIvPiYjeGE7CTxwYXRoIGNsYXNzPSJzdDEiIGQ9Ik00LjY3MyAzLjI5aC0yLjEzYS44MTIuODEyIDAgMCAxLS4yMS0xLjYxaDIuMzRhLjgxNS44MTUgMCAxIDEgLjI2IDEuNjF6Ii8+JiN4YTsJPHBhdGggY2xhc3M9InN0MiIgZD0iTTQuNjczIDYuMjRILjg1M2EuODIuODIgMCAwIDEtLjIxLTEuNjJoNGEuODIzLjgyMyAwIDAgMSAuMjkgMS42MnoiLz4mI3hhOwk8cGF0aCBjbGFzcz0ic3QxIiBkPSJNNC42NzMgOS4xOGgtMi4xM2EuODEyLjgxMiAwIDAgMS0uMjEtMS42MWgyLjM0YS44MTUuODE1IDAgMCAxIC4yNiAxLjYxeiIvPiYjeGE7PC9zdmc+;container=0;" vertex="1" parent="Sqv-9c3KXrAuvBU_Zxfx-38">
          <mxGeometry x="33.333333333333336" y="25.876666666666697" width="27.858999999999998" height="15.255500000000001" as="geometry">
            <mxRectangle x="780" y="340" width="100" height="30" as="alternateBounds" />
          </mxGeometry>
        </mxCell>
        <mxCell id="Sqv-9c3KXrAuvBU_Zxfx-42" style="edgeStyle=orthogonalEdgeStyle;rounded=0;orthogonalLoop=1;jettySize=auto;html=1;exitX=1;exitY=0.5;exitDx=0;exitDy=0;entryX=0;entryY=0.5;entryDx=0;entryDy=0;strokeColor=#FF0000;startArrow=diamond;startFill=1;" edge="1" parent="1" target="Sqv-9c3KXrAuvBU_Zxfx-27">
          <mxGeometry relative="1" as="geometry">
            <mxPoint x="1070" y="214.25" as="sourcePoint" />
            <mxPoint x="1168" y="215.25" as="targetPoint" />
          </mxGeometry>
        </mxCell>
        <mxCell id="Sqv-9c3KXrAuvBU_Zxfx-43" style="edgeStyle=orthogonalEdgeStyle;rounded=0;orthogonalLoop=1;jettySize=auto;html=1;exitX=1;exitY=0.75;exitDx=0;exitDy=0;entryX=0;entryY=0.5;entryDx=0;entryDy=0;strokeColor=#FF0000;" edge="1" parent="1" source="Sqv-9c3KXrAuvBU_Zxfx-8" target="Sqv-9c3KXrAuvBU_Zxfx-31">
          <mxGeometry relative="1" as="geometry" />
        </mxCell>
        <mxCell id="Sqv-9c3KXrAuvBU_Zxfx-44" style="edgeStyle=orthogonalEdgeStyle;rounded=0;orthogonalLoop=1;jettySize=auto;html=1;exitX=1;exitY=1;exitDx=0;exitDy=0;entryX=0;entryY=0.5;entryDx=0;entryDy=0;strokeColor=#FF0000;" edge="1" parent="1" source="Sqv-9c3KXrAuvBU_Zxfx-8" target="Sqv-9c3KXrAuvBU_Zxfx-35">
          <mxGeometry relative="1" as="geometry" />
        </mxCell>
        <mxCell id="Sqv-9c3KXrAuvBU_Zxfx-45" style="edgeStyle=orthogonalEdgeStyle;rounded=0;orthogonalLoop=1;jettySize=auto;html=1;exitX=1;exitY=0.25;exitDx=0;exitDy=0;entryX=0;entryY=0.5;entryDx=0;entryDy=0;strokeColor=#FF0000;" edge="1" parent="1" source="Sqv-9c3KXrAuvBU_Zxfx-8" target="Sqv-9c3KXrAuvBU_Zxfx-15">
          <mxGeometry relative="1" as="geometry" />
        </mxCell>
        <mxCell id="Sqv-9c3KXrAuvBU_Zxfx-46" style="edgeStyle=orthogonalEdgeStyle;rounded=0;orthogonalLoop=1;jettySize=auto;html=1;exitX=1;exitY=0;exitDx=0;exitDy=0;entryX=0;entryY=0.5;entryDx=0;entryDy=0;strokeColor=#FF0000;" edge="1" parent="1" source="Sqv-9c3KXrAuvBU_Zxfx-8" target="Sqv-9c3KXrAuvBU_Zxfx-39">
          <mxGeometry relative="1" as="geometry" />
        </mxCell>
        <mxCell id="Sqv-9c3KXrAuvBU_Zxfx-48" style="edgeStyle=orthogonalEdgeStyle;rounded=0;orthogonalLoop=1;jettySize=auto;html=1;exitX=1;exitY=0.5;exitDx=0;exitDy=0;entryX=-0.003;entryY=0.187;entryDx=0;entryDy=0;entryPerimeter=0;strokeColor=#FF0000;" edge="1" parent="1" source="Sqv-9c3KXrAuvBU_Zxfx-15" target="dWmpKs4iqiSJMQZNEG1G-565">
          <mxGeometry relative="1" as="geometry">
            <mxPoint x="1580" y="135" as="targetPoint" />
          </mxGeometry>
        </mxCell>
        <mxCell id="Sqv-9c3KXrAuvBU_Zxfx-50" style="edgeStyle=orthogonalEdgeStyle;rounded=0;orthogonalLoop=1;jettySize=auto;html=1;exitX=1;exitY=0.5;exitDx=0;exitDy=0;entryX=-0.003;entryY=0.187;entryDx=0;entryDy=0;entryPerimeter=0;strokeColor=#FF0000;" edge="1" parent="1">
          <mxGeometry relative="1" as="geometry">
            <mxPoint x="1481" y="214.57" as="sourcePoint" />
            <mxPoint x="1584" y="214.57" as="targetPoint" />
          </mxGeometry>
        </mxCell>
        <mxCell id="Sqv-9c3KXrAuvBU_Zxfx-51" style="edgeStyle=orthogonalEdgeStyle;rounded=0;orthogonalLoop=1;jettySize=auto;html=1;exitX=1;exitY=0.5;exitDx=0;exitDy=0;entryX=-0.003;entryY=0.187;entryDx=0;entryDy=0;entryPerimeter=0;strokeColor=#FF0000;" edge="1" parent="1">
          <mxGeometry relative="1" as="geometry">
            <mxPoint x="1480" y="57.56999999999999" as="sourcePoint" />
            <mxPoint x="1583" y="57.56999999999999" as="targetPoint" />
          </mxGeometry>
        </mxCell>
        <mxCell id="Sqv-9c3KXrAuvBU_Zxfx-52" style="edgeStyle=orthogonalEdgeStyle;rounded=0;orthogonalLoop=1;jettySize=auto;html=1;exitX=1;exitY=0.5;exitDx=0;exitDy=0;entryX=-0.003;entryY=0.187;entryDx=0;entryDy=0;entryPerimeter=0;strokeColor=#FF0000;" edge="1" parent="1">
          <mxGeometry relative="1" as="geometry">
            <mxPoint x="1481" y="294.57" as="sourcePoint" />
            <mxPoint x="1584" y="294.57" as="targetPoint" />
          </mxGeometry>
        </mxCell>
        <mxCell id="Sqv-9c3KXrAuvBU_Zxfx-53" style="edgeStyle=orthogonalEdgeStyle;rounded=0;orthogonalLoop=1;jettySize=auto;html=1;exitX=1;exitY=0.5;exitDx=0;exitDy=0;entryX=-0.003;entryY=0.187;entryDx=0;entryDy=0;entryPerimeter=0;strokeColor=#FF0000;" edge="1" parent="1">
          <mxGeometry relative="1" as="geometry">
            <mxPoint x="1481" y="380" as="sourcePoint" />
            <mxPoint x="1584" y="380" as="targetPoint" />
          </mxGeometry>
        </mxCell>
      </root>
    </mxGraphModel>
  </diagram>
</mxfile>
